#N canvas 152 508 680 718 12;
#X obj 30 442 cnv 20 140 40 empty empty empty 20 12 0 12 #e0e0e0 #404040 0;
#X obj 154 403 osc~ 1000;
#X msg 364 33 \; pd dsp 1;
#X floatatom 80 142 5 0 0 0 - - - 0;
#X obj 80 166 mtof;
#X obj 80 195 / 8.175;
#X msg 80 227 pitch \$1;
#X obj 37 402 osc~ 850;
#X obj 38 453 rubbershifter~, f 17;
#X obj 38 511 output~;
#X msg 82 292 print;
#X msg 81 257 get;
#X msg 82 352 bypass \$1;
#X obj 82 327 tgl 20 0 empty empty empty 0 -10 0 12 #fcfcfc #000000 #000000 0 1;
#X obj 5 8 cnv 20 135 25 empty empty rubbershifter 5 12 0 16 #e0e0e0 #404040 0;
#X text 8 38 A pitch-shifter using the RubberBand library (see (https://breakfastquay.com/rubberband/), f 46;
#X obj 141 169 hsl 170 20 -0.5 0.5 0 0 empty empty empty -2 -10 0 12 #fcfcfc #000000 #000000 0 1;
#X obj 138 194 + 1;
#X msg 137 139 0;
#X msg 504 86 engine finer;
#X msg 504 62 engine faster;
#X msg 504 120 transients crisp;
#X msg 504 144 transients mixed;
#X msg 504 168 transients smooth;
#X msg 504 225 detector percussive;
#X msg 504 201 detector compound;
#X msg 504 286 phase laminar;
#X msg 504 310 phase independent;
#X msg 504 346 window standard;
#X msg 504 370 window short;
#X msg 504 394 window long;
#X msg 504 428 smoothing off;
#X msg 504 452 smoothing on;
#X msg 504 487 formant shifted;
#X msg 504 511 formant preserved;
#X msg 504 546 priority speed;
#X msg 504 570 priority quality;
#X msg 504 594 priority consistency;
#X msg 504 630 channel apart;
#X msg 504 654 channel together;
#X obj 362 358 t a;
#X msg 504 250 detector soft;
#X obj 154 507 print get_results;
#X text 148 293 print state to console;
#X text 148 329 bypass;
#X text 502 31 Options:;
#X text 150 228 set pitch scale (1.0 = normal pitch);
#X text 149 257 send state to rightmost outlet;
#X text 15 596 2022 metalu.net/NinjaTune;
#X text 15 621 Source code repo: https://github.com/MetaluNet/rubbershifter, f 67;
#X text 15 648 The [rubbershifter] source code is BSD \, but RubberBand library is dual GPL/commercial \, read README.md for more details. Hence the [rubberband] binary must be considered as being GPL., f 63;
#X connect 1 0 8 1;
#X connect 3 0 4 0;
#X connect 4 0 5 0;
#X connect 5 0 6 0;
#X connect 6 0 8 0;
#X connect 7 0 8 0;
#X connect 8 0 9 0;
#X connect 8 1 9 1;
#X connect 8 2 42 0;
#X connect 10 0 8 0;
#X connect 11 0 8 0;
#X connect 12 0 8 0;
#X connect 13 0 12 0;
#X connect 16 0 17 0;
#X connect 17 0 6 0;
#X connect 18 0 16 0;
#X connect 19 0 40 0;
#X connect 20 0 40 0;
#X connect 21 0 40 0;
#X connect 22 0 40 0;
#X connect 23 0 40 0;
#X connect 24 0 40 0;
#X connect 25 0 40 0;
#X connect 26 0 40 0;
#X connect 27 0 40 0;
#X connect 28 0 40 0;
#X connect 29 0 40 0;
#X connect 30 0 40 0;
#X connect 31 0 40 0;
#X connect 32 0 40 0;
#X connect 33 0 40 0;
#X connect 34 0 40 0;
#X connect 35 0 40 0;
#X connect 36 0 40 0;
#X connect 37 0 40 0;
#X connect 38 0 40 0;
#X connect 39 0 40 0;
#X connect 40 0 8 0;
#X connect 41 0 40 0;
